<svg xmlns="http://www.w3.org/2000/svg" xmlns:xlink="http://www.w3.org/1999/xlink" version="1.0" x="0" y="0" width="2400" height="678.1312555344905" viewBox="22.99760498046875 83.46378387451172 294.0047900390625 83.07243225097656" preserveAspectRatio="xMidYMid meet" color-interpolation-filters="sRGB"><g><defs><linearGradient id="92" x1="0%" y1="0%" x2="100%" y2="0%"><stop offset="0%" stop-color="#fa71cd"></stop> <stop offset="100%" stop-color="#9b59b6"></stop></linearGradient><linearGradient id="93" x1="0%" y1="0%" x2="100%" y2="0%"><stop offset="0%" stop-color="#f9d423"></stop> <stop offset="100%" stop-color="#f83600"></stop></linearGradient><linearGradient id="94" x1="0%" y1="0%" x2="100%" y2="0%"><stop offset="0%" stop-color="#0064d2"></stop> <stop offset="100%" stop-color="#1cb0f6"></stop></linearGradient><linearGradient id="95" x1="0%" y1="0%" x2="100%" y2="0%"><stop offset="0%" stop-color="#f00978"></stop> <stop offset="100%" stop-color="#3f51b1"></stop></linearGradient><linearGradient id="96" x1="0%" y1="0%" x2="100%" y2="0%"><stop offset="0%" stop-color="#7873f5"></stop> <stop offset="100%" stop-color="#ec77ab"></stop></linearGradient><linearGradient id="97" x1="0%" y1="0%" x2="100%" y2="0%"><stop offset="0%" stop-color="#f9d423"></stop> <stop offset="100%" stop-color="#e14fad"></stop></linearGradient><linearGradient id="98" x1="0%" y1="0%" x2="100%" y2="0%"><stop offset="0%" stop-color="#009efd"></stop> <stop offset="100%" stop-color="#2af598"></stop></linearGradient><linearGradient id="99" x1="0%" y1="0%" x2="100%" y2="0%"><stop offset="0%" stop-color="#ffcc00"></stop> <stop offset="100%" stop-color="#00b140"></stop></linearGradient><linearGradient id="100" x1="0%" y1="0%" x2="100%" y2="0%"><stop offset="0%" stop-color="#d51007"></stop> <stop offset="100%" stop-color="#ff8177"></stop></linearGradient><linearGradient id="102" x1="0%" y1="0%" x2="100%" y2="0%"><stop offset="0%" stop-color="#a2b6df"></stop> <stop offset="100%" stop-color="#0c3483"></stop></linearGradient><linearGradient id="103" x1="0%" y1="0%" x2="100%" y2="0%"><stop offset="0%" stop-color="#7ac5d8"></stop> <stop offset="100%" stop-color="#eea2a2"></stop></linearGradient><linearGradient id="104" x1="0%" y1="0%" x2="100%" y2="0%"><stop offset="0%" stop-color="#00ecbc"></stop> <stop offset="100%" stop-color="#007adf"></stop></linearGradient><linearGradient id="105" x1="0%" y1="0%" x2="100%" y2="0%"><stop offset="0%" stop-color="#b88746"></stop> <stop offset="100%" stop-color="#fdf5a6"></stop></linearGradient></defs><g fill="#333" class="icon-text-wrapper icon-svg-group iconsvg" transform="translate(25.8800048828125,86.34618377685547)"><g class="iconsvg-imagesvg" transform="translate(0,0)"><g><rect fill="#333" fill-opacity="0" stroke-width="2" x="0" y="0" width="60" height="77.30763284028242" class="image-rect"></rect> <svg x="0" y="0" width="60" height="77.30763284028242" filtersec="colorsb2745713697" class="image-svg-svg primary" style="overflow: visible;"><svg xmlns="http://www.w3.org/2000/svg" viewBox="0.0005515326047316194 0 107.36103820800781 138.3300018310547"><g fill-rule="evenodd"><path d="M66.09 0C82.27 57-2.79 49.12 16.14 107.33-37.5 54.34 59.17 32.84 66.09 0z" fill="#2982dd"></path><path d="M36.49 123.4C-.09 85 30.16 67 57.65 50.28 60.44 87 21.51 72.82 36.49 123.4z" fill="#fec900"></path><path d="M105.3 31c16.19 57-68.88 49.12-49.95 107.33C1.71 85.29 98.38 63.8 105.3 31z" fill="#009431"></path></g></svg></svg> </g></g> <g transform="translate(67,28.918816566467285)"><g fill-rule="" class="tp-name iconsvg-namesvg"><g transform="scale(1)"><g><path d="M21.15-17.69L21.15 0 17.62 0 17.62-4.78 5.21-4.78 5.21 0 1.68 0 1.68-9.74Q1.68-11.87 2.42-13.66 3.15-15.45 4.45-16.74 5.76-18.03 7.54-18.75 9.31-19.47 11.42-19.47L11.42-19.47 19.38-19.47Q19.74-19.47 20.07-19.34 20.39-19.2 20.64-18.95 20.88-18.71 21.02-18.38 21.15-18.06 21.15-17.69L21.15-17.69ZM5.21-9.74L5.21-8.31 17.62-8.31 17.62-15.94 11.42-15.94Q11.26-15.94 10.73-15.89 10.21-15.85 9.52-15.66 8.84-15.47 8.08-15.07 7.32-14.68 6.68-13.99 6.04-13.29 5.63-12.25 5.21-11.22 5.21-9.74L5.21-9.74ZM28.2-19.47L34.15-12.52 40.1-19.47 44.92-19.47 36.54-9.71 44.86 0 40.07 0 34.15-6.9 28.26 0 23.45 0 31.76-9.71 23.42-19.47 28.2-19.47ZM50.7-19.47L50.7 0 47.17 0 47.17-19.47 50.7-19.47ZM73.54-5.73L73.54-5.73Q73.54-4.68 73.27-3.85 73.01-3.01 72.57-2.38 72.14-1.74 71.56-1.29 70.97-0.84 70.35-0.56 69.72-0.27 69.08-0.14 68.43 0 67.86 0L67.86 0 54.24 0 54.24-3.53 67.86-3.53Q68.88-3.53 69.44-4.13 70.01-4.73 70.01-5.73L70.01-5.73Q70.01-6.22 69.86-6.63 69.71-7.03 69.43-7.33 69.15-7.63 68.75-7.79 68.35-7.96 67.86-7.96L67.86-7.96 59.74-7.96Q58.89-7.96 57.9-8.26 56.91-8.57 56.06-9.25 55.21-9.93 54.64-11.03 54.08-12.13 54.08-13.71L54.08-13.71Q54.08-15.3 54.64-16.4 55.21-17.49 56.06-18.17 56.91-18.86 57.9-19.17 58.89-19.47 59.74-19.47L59.74-19.47 71.76-19.47 71.76-15.94 59.74-15.94Q58.74-15.94 58.18-15.33 57.61-14.72 57.61-13.71L57.61-13.71Q57.61-12.7 58.18-12.1 58.74-11.51 59.74-11.51L59.74-11.51 67.86-11.51 67.89-11.51Q68.46-11.5 69.1-11.36 69.74-11.22 70.37-10.92 71-10.62 71.57-10.16 72.14-9.71 72.58-9.07 73.02-8.43 73.28-7.6 73.54-6.78 73.54-5.73ZM88.73-11.32L88.73-8.15 76-8.15 76-11.32 88.73-11.32ZM108.37-11.51L108.37-7.96 97.22-7.96 97.22-11.51 108.37-11.51ZM109.95-3.53L109.95 0 97.22 0Q96.49 0 95.62-0.26 94.75-0.52 94.01-1.11 93.27-1.7 92.77-2.64 92.28-3.58 92.28-4.96L92.28-4.96 92.28-17.69Q92.28-18.06 92.41-18.38 92.55-18.71 92.79-18.95 93.02-19.2 93.35-19.34 93.67-19.47 94.06-19.47L94.06-19.47 109.95-19.47 109.95-15.94 95.81-15.94 95.81-4.96Q95.81-4.26 96.17-3.9 96.54-3.53 97.25-3.53L97.25-3.53 109.95-3.53ZM132.77-12.93L132.77-11.32Q132.77-10.12 132.47-9.17 132.17-8.21 131.66-7.49 131.15-6.76 130.48-6.25 129.82-5.73 129.09-5.4 128.37-5.08 127.63-4.93 126.89-4.78 126.23-4.78L126.23-4.78 118.25-4.78 118.25-8.31 126.23-8.31Q126.91-8.36 127.46-8.59 128.01-8.81 128.41-9.19 128.8-9.57 129.02-10.11 129.24-10.65 129.24-11.32L129.24-11.32 129.24-12.93Q129.17-13.59 128.95-14.15 128.73-14.71 128.36-15.1 127.99-15.49 127.46-15.72 126.93-15.94 126.23-15.94L126.23-15.94 118.28-15.94Q117.57-15.94 117.21-15.57 116.84-15.21 116.84-14.51L116.84-14.51 116.84 0 113.31 0 113.31-14.51Q113.31-15.87 113.8-16.82 114.3-17.77 115.04-18.36 115.78-18.94 116.65-19.21 117.52-19.47 118.25-19.47L118.25-19.47 126.23-19.47Q127.43-19.47 128.38-19.17 129.33-18.86 130.06-18.35 130.78-17.84 131.29-17.18 131.8-16.51 132.13-15.78 132.47-15.06 132.62-14.32 132.77-13.58 132.77-12.93L132.77-12.93ZM153.21-3.53L153.21 0 140.48 0Q139.99 0 139.43-0.12 138.86-0.23 138.31-0.48 137.76-0.72 137.26-1.11 136.76-1.49 136.37-2.04 135.98-2.59 135.75-3.32 135.52-4.05 135.52-4.96L135.52-4.96 135.52-14.51Q135.52-15 135.64-15.57 135.75-16.13 136-16.68 136.24-17.23 136.64-17.73 137.03-18.24 137.58-18.62 138.13-19.01 138.85-19.24 139.57-19.47 140.48-19.47L140.48-19.47 153.21-19.47 153.21-15.94 140.48-15.94Q139.79-15.94 139.42-15.57 139.05-15.21 139.05-14.49L139.05-14.49 139.05-4.96Q139.05-4.28 139.43-3.9 139.8-3.53 140.48-3.53L140.48-3.53 153.21-3.53ZM183.48-3.53L183.48 0 167.38 0Q167 0 166.67-0.14 166.34-0.27 166.11-0.51 165.87-0.75 165.73-1.07 165.6-1.4 165.6-1.78L165.6-1.78 165.6-19.47 169.13-19.47 169.13-3.53 183.48-3.53ZM200.9-19.47L200.9-15.94 193.12-15.94 193.12 0 189.59 0 189.59-15.94 181.8-15.94 181.8-19.47 200.9-19.47ZM222.92-11.32L222.92-8.15Q222.92-6.37 222.31-4.87 221.69-3.38 220.6-2.3 219.52-1.22 218.02-0.61 216.53 0 214.78 0L214.78 0 205.25 0Q204.87 0 204.54-0.14 204.21-0.27 203.98-0.51 203.74-0.75 203.6-1.07 203.47-1.4 203.47-1.78L203.47-1.78 203.47-17.69Q203.47-18.06 203.6-18.38 203.74-18.71 203.98-18.95 204.21-19.2 204.54-19.34 204.87-19.47 205.25-19.47L205.25-19.47 214.78-19.47Q216.53-19.47 218.02-18.86 219.52-18.25 220.6-17.17 221.69-16.09 222.31-14.59 222.92-13.09 222.92-11.32L222.92-11.32ZM219.39-8.15L219.39-11.32Q219.39-12.36 219.06-13.21 218.73-14.07 218.12-14.67 217.51-15.28 216.66-15.61 215.81-15.94 214.78-15.94L214.78-15.94 207-15.94 207-3.53 214.78-3.53Q215.81-3.53 216.66-3.86 217.51-4.2 218.12-4.8 218.73-5.4 219.06-6.25 219.39-7.1 219.39-8.15L219.39-8.15Z" transform="translate(-1.6800000667572021, 19.469999313354492)"></path></g> </g></g> </g></g><defs v-gra="od"></defs></g></svg>